<?xml version="1.0" encoding="utf-8"?>
<!-- Generator: Adobe Illustrator 19.2.1, SVG Export Plug-In . SVG Version: 6.00 Build 0)  -->
<svg version="1.1" id="Layer_1" xmlns="http://www.w3.org/2000/svg" xmlns:xlink="http://www.w3.org/1999/xlink" x="0px" y="0px"
	 viewBox="0 0 727.3 310.6" style="enable-background:new 0 0 727.3 310.6;" xml:space="preserve">
<style type="text/css">
	.st0{fill:url(#SVGID_1_);}
	.st1{fill:#FFFFFF;}
	.st2{fill:#010101;}
	.st3{opacity:0.5;}
</style>
<g>
	<linearGradient id="SVGID_1_" gradientUnits="userSpaceOnUse" x1="305.6615" y1="249.7416" x2="116.8166" y2="60.8967">
		<stop  offset="0" style="stop-color:#019547"/>
		<stop  offset="1" style="stop-color:#2BACE2"/>
	</linearGradient>
	<circle class="st0" cx="211.2" cy="155.3" r="133.5"/>
	<g>
		<path class="st1" d="M168.8,141.9h12.9c10.4,0,17.6,7.2,17.6,16.5v0.1c0,9.3-7.2,16.6-17.6,16.6h-12.9V141.9z M176.1,148.5v20h5.6
			c6,0,10-4,10-9.9v-0.1c0-5.9-4-10-10-10H176.1z"/>
		<path class="st1" d="M229.2,141.7h6.7l14.2,33.4h-7.6l-3-7.4h-14l-3,7.4h-7.4L229.2,141.7z M236.9,161.3l-4.4-10.8l-4.4,10.8
			H236.9z"/>
		<path class="st1" d="M273,148.7h-10.1v-6.7h27.5v6.7h-10.1v26.5H273V148.7z"/>
		<path class="st1" d="M317.3,141.7h6.7l14.2,33.4h-7.6l-3-7.4h-14l-3,7.4h-7.4L317.3,141.7z M325,161.3l-4.4-10.8l-4.4,10.8H325z"
			/>
		<path class="st2" d="M348.4,170.3l4.3-5.2c3,2.5,6.1,4,9.9,4c3,0,4.8-1.2,4.8-3.1V166c0-1.9-1.1-2.8-6.7-4.2
			c-6.7-1.7-11-3.6-11-10.2v-0.1c0-6,4.8-10,11.6-10c4.8,0,9,1.5,12.3,4.2l-3.8,5.5c-2.9-2-5.8-3.3-8.6-3.3c-2.8,0-4.3,1.3-4.3,2.9
			v0.1c0,2.2,1.4,2.9,7.2,4.4c6.7,1.8,10.5,4.2,10.5,10v0.1c0,6.6-5,10.3-12.2,10.3C357.4,175.6,352.3,173.9,348.4,170.3z"/>
		<path class="st2" d="M393.8,158.6L393.8,158.6c0-9.5,7.1-17.3,17.3-17.3c6.3,0,10,2.1,13.1,5.1l-4.6,5.4c-2.6-2.3-5.2-3.7-8.5-3.7
			c-5.6,0-9.6,4.6-9.6,10.3v0.1c0,5.7,3.9,10.4,9.6,10.4c3.8,0,6.1-1.5,8.7-3.9l4.6,4.7c-3.4,3.7-7.2,5.9-13.6,5.9
			C401,175.7,393.8,168.2,393.8,158.6z"/>
		<path class="st2" d="M444.8,141.9h7.3v33.2h-7.3V141.9z"/>
		<path class="st2" d="M474.7,141.9h25v6.5h-17.8v6.7h15.7v6.5h-15.7v7h18v6.5h-25.3V141.9z"/>
		<path class="st2" d="M520.7,141.9h6.7l15.6,20.4v-20.4h7.2v33.2H544L527.9,154v21.1h-7.2V141.9z"/>
		<path class="st2" d="M571,158.6L571,158.6c0-9.5,7.1-17.3,17.3-17.3c6.3,0,10,2.1,13.1,5.1l-4.6,5.4c-2.6-2.3-5.2-3.7-8.5-3.7
			c-5.6,0-9.6,4.6-9.6,10.3v0.1c0,5.7,3.9,10.4,9.6,10.4c3.8,0,6.1-1.5,8.7-3.9l4.6,4.7c-3.4,3.7-7.2,5.9-13.6,5.9
			C578.2,175.7,571,168.2,571,158.6z"/>
		<path class="st2" d="M621.7,141.9h25v6.5h-17.8v6.7h15.7v6.5h-15.7v7h18v6.5h-25.3V141.9z"/>
		<path class="st2" d="M477.8,204.8L477.8,204.8c0-9.5,7.1-17.3,17.3-17.3c6.3,0,10,2.1,13.1,5.1l-4.6,5.4c-2.6-2.3-5.2-3.7-8.5-3.7
			c-5.6,0-9.6,4.6-9.6,10.3v0.1c0,5.7,3.9,10.4,9.6,10.4c3.8,0,6.1-1.5,8.7-3.9l4.6,4.7c-3.4,3.7-7.2,5.9-13.6,5.9
			C485.1,221.8,477.8,214.3,477.8,204.8z"/>
		<path class="st2" d="M528.6,188.1h7.3v26.6h16.6v6.6h-23.9V188.1z"/>
		<path class="st2" d="M570.7,207v-19h7.3v18.8c0,5.4,2.7,8.2,7.2,8.2c4.5,0,7.2-2.7,7.2-8v-19h7.3v18.7c0,10.1-5.6,15-14.6,15
			C576.2,221.8,570.7,216.8,570.7,207z"/>
		<path class="st2" d="M621.3,188.1h15.4c3.8,0,6.8,1,8.7,2.9c1.5,1.5,2.3,3.4,2.3,5.6v0.1c0,3.7-2,5.8-4.4,7.2
			c3.8,1.5,6.2,3.7,6.2,8.2v0.1c0,6.1-4.9,9.1-12.4,9.1h-15.8V188.1z M640.5,197.9c0-2.2-1.7-3.4-4.8-3.4h-7.2v7h6.7
			C638.4,201.5,640.5,200.4,640.5,197.9L640.5,197.9z M636.9,207.6h-8.4v7.3h8.7c3.2,0,5.2-1.1,5.2-3.6v-0.1
			C642.3,208.9,640.7,207.6,636.9,207.6z"/>
	</g>
	<g class="st3">
		<path class="st1" d="M340.3,126c0,0.1,0,0.2,0,0.3l-116.8,4.7c0-0.4-0.1-0.7-0.2-1.1l74.9-34.2c0.9,1.3,2.3,2.2,4,2.5
			c3.3,0.5,6.4-1.7,7-5.1c0.4-2.8-1.1-5.4-3.6-6.5c1.9-6.5,3.9-13.5,5.7-19.8c-0.4-0.5-0.9-1-1.3-1.5c-0.4,1.4-0.9,3-1.4,4.6
			c-1.7,5.9-3.4,11.8-4.7,16.1c-3.3-0.5-6.4,1.8-6.9,5.1c-0.2,1.1,0,2.1,0.3,3l-74.8,34.2c0-0.1-0.1-0.2-0.1-0.2l81.4-69.1
			c-0.4-0.4-0.8-0.8-1.2-1.1l-81.2,68.9c-0.9-0.8-1.9-1.3-3.2-1.5c-3.3-0.5-6.4,1.7-7,5.1c-0.2,1,0,2,0.3,2.9l-15.7,3.2L183.7,24.6
			c-0.5,0.1-1.1,0.2-1.6,0.4l12.2,111.9l-37.9,7.7l20.3-118.3c-0.6,0.2-1.2,0.3-1.8,0.5L154.6,145l-76.8,15.7c0,0.8,0.1,1.7,0.1,2.5
			l73.3,1.2l-1.5,8.6L78,163.4c0,0.6,0.1,1.1,0.1,1.7l71.4,9.6l-15.4,89.7c0.5,0.4,1,0.7,1.5,1l15.5-90.5l13.9,1.9
			c0,2.9,2,5.4,4.8,6l-31.7,84.4c0.5,0.3,0.9,0.6,1.4,0.9l32-85.2c0.7-0.1,1.4-0.2,2-0.5l28.8,55.6c-1.5,0.9-2.7,2.4-3,4.3
			c-0.3,1.6,0.2,3.2,1,4.4l-47.7,28.7c0.6,0.3,1.2,0.6,1.8,0.9l17.5-10.5l29.5-17.8c0.8,0.7,1.8,1.2,2.9,1.3c3.3,0.5,6.4-1.7,7-5.1
			c0.5-3.3-1.7-6.3-4.9-6.9l-7.3-66.6c1.1-0.2,2.2-0.8,3-1.5l91.9,76.9c-0.2,0.5-0.4,1-0.5,1.6c-0.5,3.3,1.7,6.4,5.1,7
			c0.6,0.1,1.2,0.1,1.8,0c1.8-1.6,3.5-3.2,5.1-4.9c0-0.1,0-0.1,0-0.2c0.3-2-0.4-3.9-1.8-5.3l36.5-61.5c0.4,0.1,0.8,0.3,1.2,0.3
			c0.1,0,0.1,0,0.2,0c0.8-3.9,1.5-7.9,2-12c-0.1,0-0.2,0-0.3-0.1c-2.5-0.4-4.9,0.8-6.2,2.9l-114.1-41.3c0,0,0,0,0,0l117.1-4.8
			c0.3,1.6,1.1,3,2.4,4c-0.5-2.7-1-5.4-1.7-8C340.7,124.5,340.4,125.2,340.3,126z M156,146.4l38.4-7.8l2.2,20.3
			c-2.2,0.5-3.9,2.3-4.4,4.5l-38.9-0.6L156,146.4z M81.4,161.6l72.8-14.9l-2.7,16L81.4,161.6z M172,170.8c-3.1-0.5-5.9,1.4-6.8,4.3
			l-13.9-1.9l1.5-8.8L192,165c0,0.5,0.1,1,0.3,1.5l-15.9,7.3C175.4,172.2,173.9,171.1,172,170.8z M204.8,237.2c-0.3,0-0.6,0.1-1,0.1
			L175,181.5c1.1-0.9,1.9-2.2,2.1-3.7c0.1-0.9,0.1-1.7-0.1-2.5l16-7.3c0.9,1.4,2.4,2.5,4.2,2.8c0.2,0,0.3,0,0.5,0L204.8,237.2z
			 M199,158.7c-0.3,0-0.5,0-0.8,0l-2.2-20.5l16.3-3.3c0.9,1.3,2.3,2.3,4,2.5c0.4,0.1,0.7,0.1,1.1,0.1l21.3,30
			c-12.4-1.2-24.3-2.3-34.6-3.3C203.9,161.5,201.8,159.2,199,158.7z M203.3,167.9c0.4-0.6,0.6-1.3,0.8-2c7.2,0.7,20.4,1.9,36,3.4
			l51.6,72.5L203.3,167.9z M339,182l-36.4,61.3c-0.6-0.3-1.3-0.6-2-0.7c-2-0.3-3.9,0.4-5.2,1.7l-53.2-74.8c9,0.8,18.6,1.7,28.3,2.6
			c18,1.7,36.1,3.3,49.6,4.5c7.9,0.7,13.1,1.2,16.5,1.4C336.8,179.6,337.7,181,339,182z M336.7,175.5c-0.1,0.2-0.1,0.4-0.2,0.6
			c0,0,0,0.1,0,0.1c-15.4-1.2-57.5-5.1-95.6-8.7l-21.7-30.5c1.5-0.5,2.7-1.5,3.4-2.9L336.7,175.5z"/>
	</g>
</g>
</svg>
